<svg xmlns="http://www.w3.org/2000/svg" viewBox="28 0 130 140" role="img" aria-label="UniPlace">
  <g fill="#FF5733">
    <circle cx="60" cy="58" r="3.2"/>
    <path d="M60 61 q-3 4 1 7" stroke="#FF5733" stroke-width="2.2" fill="none" stroke-linecap="round"/>
    <path d="M44 50 l2.4 2.4 -2.4 2.4 -2.4 -2.4 z"/>
    <path d="M52 40 l1.8 1.8 -1.8 1.8 -1.8 -1.8 z"/>
  </g>
  <g fill="#2A2A2A">
    <rect x="44" y="100" width="13" height="34" rx="6"/>
    <rect x="62" y="104" width="13" height="30" rx="6"/>
    <rect x="86" y="100" width="13" height="34" rx="6"/>
    <rect x="104" y="104" width="13" height="30" rx="6"/>
  </g>
  <g fill="#FF5733">
    <rect x="44" y="124" width="13" height="6" rx="2"/>
    <rect x="62" y="124" width="13" height="6" rx="2"/>
    <rect x="86" y="124" width="13" height="6" rx="2"/>
    <rect x="104" y="124" width="13" height="6" rx="2"/>
  </g>
  <ellipse cx="80" cy="92" rx="44" ry="30" fill="#2A2A2A"/>
  <circle cx="40" cy="86" r="11" fill="#2A2A2A"/>
  <path d="M104 104 C 108 78 112 58 116 44" stroke="#2A2A2A" stroke-width="24" fill="none" stroke-linecap="round"/>
  <rect x="100" y="66" width="28" height="9" rx="4.5" fill="#FF5733" transform="rotate(-16 114 70)"/>
  <ellipse cx="120" cy="40" rx="17" ry="15" fill="#2A2A2A"/>
  <ellipse cx="135" cy="46" rx="11" ry="9" fill="#2A2A2A"/>
  <path d="M108 26 q-3 -12 6 -12 q3 7 -1 14 z" fill="#2A2A2A"/>
  <path d="M124 24 q1 -12 9 -9 q1 7 -5 13 z" fill="#2A2A2A"/>
  <circle cx="126" cy="38" r="3.6" fill="#FFFFFF"/>
  <path d="M132 50 q6 4 11 0" stroke="#FFFFFF" stroke-width="2.4" fill="none" stroke-linecap="round"/>
  <path d="M108 24 q12 -7 24 0 l0 4 q-12 6 -24 0 z" fill="#FF5733"/>
  <path d="M120 8 L146 19 L120 30 L94 19 Z" fill="#FF5733"/>
  <circle cx="120" cy="19" r="2.6" fill="#2A2A2A"/>
  <path d="M120 19 L144 19 L144 36" stroke="#FF5733" stroke-width="2.4" fill="none" stroke-linecap="round"/>
  <circle cx="144" cy="39" r="4" fill="#FF5733"/>
</svg>
